<svg id="Layer_5" enable-background="new 0 0 64 64" height="512" viewBox="0 0 64 64" width="512" xmlns="http://www.w3.org/2000/svg"><g><g><path d="m16 63c-5.514 0-10-4.486-10-10 0-2.677 1.088-5.249 3-7.127v-25.401c-2.548-2.101-4-5.16-4-8.472 0-4.37 2.59-8.326 6.6-10.078l1.4-.612v10.19l3 2.25 3-2.25v-10.19l1.4.612c4.01 1.752 6.6 5.708 6.6 10.078 0 3.312-1.452 6.371-4 8.472v25.401c1.912 1.878 3 4.45 3 7.127 0 5.514-4.486 10-10 10zm-5-58.479c-2.471 1.65-4 4.442-4 7.479 0 2.846 1.312 5.466 3.601 7.188l.399.3v27.265l-.333.298c-1.695 1.519-2.667 3.688-2.667 5.949 0 4.411 3.589 8 8 8s8-3.589 8-8c0-2.261-.972-4.43-2.667-5.95l-.333-.298v-27.265l.399-.3c2.289-1.721 3.601-4.341 3.601-7.187 0-3.037-1.529-5.829-4-7.479v7.979l-5 3.75-5-3.75z"/></g><g fill="#f0bc5e"><path d="m16 47c-3.309 0-6 2.691-6 6s2.691 6 6 6 6-2.691 6-6-2.691-6-6-6z"/><path d="m48 15c2.757 0 5-2.243 5-5s-2.243-5-5-5-5 2.243-5 5 2.243 5 5 5z"/><path d="m15 43h2c1.103 0 2-.897 2-2v-16c0-1.103-.897-2-2-2h-2c-1.103 0-2 .897-2 2v16c0 1.103.897 2 2 2z"/><path d="m51.566 46h-7.133l-3.6 6 3.6 6h7.133l3.6-6z"/></g><g><path d="m48 63c-6.065 0-11-4.935-11-11 0-4.148 2.334-7.924 6-9.795v-24.73c-2.481-1.663-4-4.476-4-7.475 0-4.963 4.038-9 9-9s9 4.037 9 9c0 2.999-1.519 5.812-4 7.475v24.73c3.666 1.871 6 5.646 6 9.795 0 6.065-4.935 11-11 11zm0-60c-3.86 0-7 3.141-7 7 0 2.484 1.342 4.805 3.501 6.056l.499.289v27.147l-.6.262c-3.28 1.434-5.4 4.671-5.4 8.246 0 4.963 4.038 9 9 9s9-4.037 9-9c0-3.575-2.12-6.812-5.4-8.246l-.6-.262v-27.147l.499-.289c2.159-1.251 3.501-3.572 3.501-6.056 0-3.859-3.14-7-7-7z"/></g><g><path d="m47 42h2v2h-2z"/></g><g><path d="m47 29h2v11h-2z"/></g><g><path d="m49 27h-2v-2h2zm0-4h-2v-2h2zm0-4h-2v-2h2z"/></g></g></svg>